<?xml version="1.0" encoding="UTF-8"?>
<!DOCTYPE svg PUBLIC "-//W3C//DTD SVG 1.1//EN" "http://www.w3.org/Graphics/SVG/1.1/DTD/svg11.dtd">
<svg version="1.1" xmlns="http://www.w3.org/2000/svg" xmlns:xlink="http://www.w3.org/1999/xlink" x="0" y="0" width="226.55" height="444.007" viewBox="0, 0, 226.55, 444.007">
  <defs>
    <linearGradient id="Gradient_1" gradientUnits="userSpaceOnUse" x1="-0.001" y1="-153.279" x2="226.55" y2="-153.279" gradientTransform="matrix(1, 0, 0, -1, 0, 0)">
      <stop offset="0" stop-color="#A8D13D" stop-opacity="0"/>
      <stop offset="0.538" stop-color="#17A2B8"/>
      <stop offset="1" stop-color="#46A54B"/>
      <stop offset="1" stop-color="#46A54B"/>
    </linearGradient>
    <clipPath id="Clip_1">
      <path d="M143.13,207.664 C188.86,207.664 225.57,171.004 226.52,126.144 C226.55,125.444 226.55,124.724 226.55,124.014 C226.55,123.674 226.54,123.345 226.54,123.014 C226.52,121.684 226.46,120.334 226.38,118.994 L225.11,98.894 C221.112,120.431 208.554,138.69 191.12,151.604 C182.79,157.484 173.33,161.874 163.1,164.374 C156.71,165.954 150.02,166.784 143.13,166.784 L83.41,166.784 C76.52,166.784 69.84,165.954 63.45,164.374 C53.22,161.874 43.76,157.494 35.43,151.615 C17.99,139.324 5.51,120.534 1.43,98.904 L0.16,118.994 C0.11,119.885 0.06,120.784 0.03,121.674 C0.02,121.984 0.02,122.284 0.01,122.595 L0.003,123.095 L0.003,124.008 C0.39,171.016 36.891,206.481 83.41,207.664 L143.13,207.664 z"/>
    </clipPath>
    <linearGradient id="Gradient_2" gradientUnits="userSpaceOnUse" x1="71.129" y1="223.762" x2="155.379" y2="223.762">
      <stop offset="0" stop-color="#A8D13D"/>
      <stop offset="0.32" stop-color="#17A2B8"/>
      <stop offset="1" stop-color="#46A54B"/>
      <stop offset="1" stop-color="#46A54B"/>
    </linearGradient>
  </defs>
  <g id="Layer_1">
    <g id="Python">
      <path d="M78.86,421.517 C78.486,421.517 78.11,421.494 77.729,421.446 C72.797,420.828 69.3,416.329 69.919,411.397 L78.9,339.76 C79.519,334.829 84.021,331.329 88.95,331.95 C93.882,332.568 97.379,337.067 96.76,341.998 L87.779,413.635 C87.208,418.187 83.331,421.517 78.86,421.517" fill="#000000"/>
      <path d="M144.61,421.516 C139.917,421.516 135.962,417.877 135.64,413.125 L130.78,341.489 C130.443,336.53 134.191,332.237 139.15,331.9 C144.106,331.578 148.402,335.311 148.739,340.27 L153.599,411.907 C153.935,416.866 150.188,421.159 145.229,421.495 C145.022,421.509 144.815,421.516 144.61,421.516" fill="#000000"/>
      <path d="M42.62,444.007 L84.687,444.007 C93.095,444.007 99.531,436.538 98.307,428.219 C96.533,416.168 87.697,402.022 55.193,404.555 C28.614,406.626 26.911,422.145 29.15,433.089 C30.454,439.463 36.115,444.007 42.62,444.007" fill="#A8D13D"/>
      <path d="M180.01,444.007 L137.943,444.007 C129.535,444.007 123.099,436.538 124.323,428.219 C126.097,416.168 134.933,402.022 167.437,404.555 C194.016,406.626 195.719,422.145 193.48,433.089 C192.176,439.463 186.515,444.007 180.01,444.007" fill="#A8D13D"/>
      <path d="M226.55,124.014 C226.55,124.724 226.55,125.444 226.52,126.144 C225.29,170.754 188.69,207.144 143.13,207.144 L83.41,207.144 C37.09,207.144 0,169.494 0,123.854 C0,123.434 0,123.014 0.01,122.594 C0.02,122.284 0.02,121.984 0.03,121.674 C0.06,120.784 0.11,119.884 0.16,118.994 L1.43,98.904 C5.51,120.534 17.99,139.324 35.43,151.614 C43.76,157.494 53.22,161.874 63.45,164.374 C69.84,165.954 76.52,166.784 83.41,166.784 L143.13,166.784 C150.02,166.784 156.71,165.954 163.1,164.374 C173.33,161.874 182.79,157.484 191.12,151.604 C208.57,139.314 221.04,120.524 225.11,98.894 L226.38,118.994 C226.46,120.334 226.52,121.684 226.54,123.014 C226.54,123.344 226.55,123.674 226.55,124.014" fill="#A8D13D"/>
      <g clip-path="url(#Clip_1)" opacity="0.75">
        <path d="M143.13,207.664 C188.86,207.664 225.57,171.004 226.52,126.144 C226.55,125.444 226.55,124.724 226.55,124.014 C226.55,123.674 226.54,123.345 226.54,123.014 C226.52,121.684 226.46,120.334 226.38,118.994 L225.11,98.894 C221.04,120.524 208.57,139.314 191.12,151.604 C182.79,157.484 173.33,161.874 163.1,164.374 C156.71,165.954 150.02,166.784 143.13,166.784 L83.41,166.784 C76.52,166.784 69.84,165.954 63.45,164.374 C53.22,161.874 43.76,157.494 35.43,151.615 C17.99,139.324 5.51,120.534 1.43,98.904 L0.16,118.994 C0.11,119.885 0.06,120.784 0.03,121.674 C0.02,121.984 0.02,122.284 0.01,122.595 L0.003,123.095 L0.003,124.008 C0.39,171.016 36.891,206.481 83.41,207.664 L143.13,207.664 z" fill="url(#Gradient_1)"/>
      </g>
      <path d="M194.23,162.014 C193.69,170.704 186.21,177.304 177.52,176.774 C170.31,176.324 164.55,171.104 163.1,164.374 C173.33,161.874 182.79,157.484 191.12,151.604 C193.29,154.494 194.47,158.124 194.23,162.014" fill="#211D38"/>
      <path d="M138.904,45.47 L138.904,99.56 C138.904,113.73 127.364,125.27 113.194,125.27 L113.184,125.27 C99.014,125.27 87.464,113.73 87.464,99.56 L87.464,45.38 C87.494,45.4 87.514,45.41 87.544,45.42 C103.844,52.67 122.614,52.69 138.904,45.47" fill="#000000"/>
      <path d="M226.544,123.02 C226.524,121.69 226.464,120.34 226.384,119 L225.114,98.9 C221.044,120.53 208.574,139.32 191.124,151.61 C187.414,154.23 183.484,156.55 179.364,158.54 C174.224,161.02 168.784,162.99 163.104,164.38 C156.714,165.96 150.024,166.79 143.134,166.79 L83.414,166.79 C76.524,166.79 69.844,165.96 63.454,164.38 C53.224,161.88 43.764,157.5 35.434,151.62 C17.994,139.33 5.514,120.54 1.434,98.91 L0.164,119 C0.114,119.89 0.064,120.79 0.034,121.68 C0.064,120.62 0.104,119.56 0.174,118.49 L5.964,26.68 C6.904,11.68 19.344,-0 34.374,-0 C36.254,-0 38.074,0.41 39.754,1.17 C41.414,1.93 42.934,3.05 44.164,4.46 L54.684,16.57 L65.604,29.13 C70.554,34.84 76.274,39.41 82.464,42.86 C82.494,42.88 82.514,42.9 82.544,42.91 C84.154,43.82 85.804,44.63 87.464,45.38 L87.464,99.56 C87.464,113.73 99.014,125.27 113.184,125.27 L113.194,125.27 C127.364,125.27 138.904,113.73 138.904,99.56 L138.904,45.47 C138.924,45.46 138.954,45.45 138.974,45.44 C140.654,44.7 142.294,43.88 143.904,42.98 C143.924,42.97 143.954,42.95 143.974,42.94 C149.394,39.93 154.454,36.06 158.964,31.33 C159.654,30.62 160.324,29.88 160.974,29.13 L171.894,16.57 L182.434,4.45 C184.884,1.62 188.444,-0 192.184,-0 C199.694,-0 206.564,2.92 211.674,7.71 C216.774,12.51 220.114,19.18 220.594,26.68 L226.384,118.49 C226.474,120 226.534,121.52 226.544,123.02" fill="#A8D13D"/>
      <path d="M63.45,164.374 C62,171.104 56.23,176.324 49.02,176.774 C40.34,177.304 32.86,170.704 32.32,162.014 C32.08,158.134 33.26,154.504 35.43,151.614 C43.76,157.494 53.22,161.874 63.45,164.374" fill="#211D38"/>
      <path d="M157.889,253.247 C156.639,251.947 155.169,250.797 153.519,249.857 C150.279,248.007 146.369,246.917 142.159,246.917 C141.879,246.917 141.599,246.917 141.319,246.937 C134.879,247.157 129.239,249.907 125.719,254.037 L113.179,256.207 L106.209,254.997 L104.579,254.717 C103.129,252.817 101.229,251.177 99.009,249.907 C99.009,249.907 99.009,249.887 98.999,249.897 C96.329,248.177 93.279,247.127 90.019,246.947 C89.679,246.927 89.339,246.917 88.999,246.917 C88.759,246.917 88.539,246.917 88.309,246.937 L88.209,246.937 C88.009,246.917 87.799,246.917 87.589,246.917 C81.559,246.917 76.139,249.147 72.439,252.677 C71.839,253.257 71.279,253.857 70.779,254.497 C69.829,255.697 69.049,256.997 68.469,258.377 L69.459,229.767 L69.479,229.137 C69.589,226.097 70.189,223.327 71.129,221.137 C108.059,241.177 143.899,226.737 155.379,221.027 C156.339,223.237 156.959,226.037 157.059,229.137 L157.079,229.687 z" fill="#A8D13D"/>
      <path d="M88.209,246.937 C81.519,247.147 75.669,250.097 72.189,254.497 L72.439,252.677 C76.139,249.147 81.559,246.917 87.589,246.917 C87.799,246.917 88.009,246.917 88.209,246.937" fill="#A8D13D"/>
      <path d="M155.379,221.027 C143.899,226.737 108.059,241.177 71.129,221.137 C72.449,218.057 74.419,216.107 76.619,216.107 L149.929,216.107 C152.099,216.107 154.059,218.007 155.379,221.027" fill="#A8D13D"/>
      <path d="M159.179,305.417 C159.179,311.897 158.609,318.097 157.609,323.817 C156.649,324.317 155.689,324.787 154.739,325.237 C139.739,332.377 125.919,334.987 113.739,334.987 C95.299,334.987 80.599,329.017 71.229,323.737 C70.369,323.257 69.549,322.777 68.779,322.307 C67.869,316.997 67.369,311.317 67.369,305.417 L67.649,294.347 L67.959,282.277 L68.119,275.917 L68.299,269.057 L68.469,262.267 C69.049,260.417 69.829,258.677 70.779,257.067 C71.279,256.217 71.839,255.407 72.439,254.637 L72.189,257.067 C75.669,251.177 81.519,247.227 88.209,246.947 C88.239,246.947 88.279,246.937 88.309,246.937 C88.539,246.917 88.759,246.917 88.999,246.917 C89.339,246.917 89.689,246.927 90.019,246.947 C93.279,247.127 96.329,248.177 98.999,249.897 C99.009,249.887 99.009,249.907 99.009,249.907 C100.949,251.157 102.699,252.767 104.159,254.647 C104.859,255.517 105.479,256.447 106.029,257.437 C106.099,257.537 106.149,257.637 106.209,257.737 L106.459,257.797 L113.179,259.357 L120.989,257.547 L123.749,256.917 C123.739,256.907 123.739,256.907 123.749,256.907 L125.719,256.457 C126.349,255.467 127.049,254.537 127.809,253.677 C131.279,249.707 136.029,247.177 141.319,246.937 C141.599,246.917 141.879,246.917 142.159,246.917 C146.369,246.917 150.279,248.377 153.519,250.857 C153.569,250.897 153.629,250.937 153.679,250.987 C155.269,252.217 156.679,253.717 157.889,255.397 L158.259,269.667 L158.459,277.447 L158.589,282.307 L158.899,294.387 z" fill="#A8D13D"/>
      <path d="M157.606,323.218 C157.15,325.148 156.607,327.008 155.987,328.778 C154.152,334.038 151.631,338.538 148.746,341.928 C146.937,343.318 144.836,344.588 142.484,345.728 C140.132,346.868 137.529,347.878 134.721,348.718 C128.264,350.678 120.726,351.798 112.681,351.798 C104.636,351.798 97.098,350.678 90.641,348.718 L90.631,348.718 C88.756,348.148 86.972,347.508 85.292,346.818 C80.921,344.988 76.826,341.048 73.577,335.058 C72.122,332.388 70.861,329.398 69.867,326.168 C69.457,324.848 69.094,323.488 68.776,322.088 C69.545,322.438 70.364,322.798 71.225,323.158 C80.598,327.098 95.294,331.558 113.737,331.558 C125.922,331.558 139.743,329.608 154.741,324.278 C155.689,323.938 156.648,323.588 157.606,323.218" fill="#000000"/>
      <path d="M76.62,216.107 C74.419,216.107 72.45,218.057 71.13,221.137 L71.13,221.137 C108.059,241.177 143.899,226.737 155.38,221.027 L155.38,221.027 C154.059,218.007 152.099,216.107 149.929,216.107 L149.929,216.107 z" fill="url(#Gradient_2)"/>
      <path d="M104.561,340.88 C104.561,344.082 101.966,346.677 98.764,346.677 C95.562,346.677 92.966,344.082 92.966,340.88 C92.966,337.678 95.562,335.083 98.764,335.083 C101.966,335.083 104.561,337.678 104.561,340.88" fill="#FFAF00"/>
      <path d="M133.584,340.88 C133.584,344.082 130.989,346.677 127.787,346.677 C124.585,346.677 121.989,344.082 121.989,340.88 C121.989,337.678 124.585,335.083 127.787,335.083 C130.989,335.083 133.584,337.678 133.584,340.88" fill="#FFAF00"/>
      <path d="M172.279,280.927 C170.579,282.567 168.329,283.457 166.019,283.457 C165.509,283.457 164.999,283.417 164.489,283.327 L158.899,282.357 L158.589,282.307 L113.179,274.467 L90.799,270.607 C88.509,270.217 86.569,268.987 85.249,267.287 C85.189,267.207 85.129,267.127 85.079,267.047 C83.889,265.447 83.249,263.457 83.349,261.357 C83.349,260.977 83.389,260.597 83.459,260.207 C84.309,255.307 88.959,252.037 93.859,252.867 L104.159,254.647 L104.579,254.717 L106.209,254.997 L113.179,256.207 L120.989,257.547 L123.239,257.937 L142.999,261.357 L155.409,263.497 L153.679,250.987 L153.519,249.857 C155.169,250.797 156.639,251.947 157.889,253.247 L157.079,229.687 C157.889,229.287 158.769,229.017 159.699,228.887 C164.619,228.217 169.169,231.647 169.849,236.567 L174.929,273.217 C175.329,276.067 174.339,278.927 172.279,280.927" fill="#000000"/>
      <path d="M107.769,262.677 L85.079,267.047 L83.839,267.287 L72.199,269.537 L68.769,270.197 C68.589,269.827 68.429,269.447 68.299,269.057 C68.229,268.897 68.169,268.737 68.119,268.567 C67.629,267.097 67.369,265.557 67.369,263.957 C67.369,262.007 67.759,260.127 68.469,258.377 C69.049,256.997 69.829,255.697 70.779,254.497 C71.279,253.857 71.839,253.257 72.439,252.677 C76.139,249.147 81.559,246.917 87.589,246.917 C87.799,246.917 88.009,246.917 88.209,246.937 L88.309,246.937 C92.269,247.047 95.939,248.117 98.999,249.897 C99.009,249.887 99.009,249.907 99.009,249.907 C101.229,251.177 103.129,252.817 104.579,254.717 C104.659,254.807 104.729,254.897 104.799,254.997 C105.319,255.687 105.769,256.417 106.159,257.167 C106.199,257.247 106.239,257.317 106.269,257.397 C106.339,257.527 106.399,257.667 106.459,257.797 C107.169,259.327 107.619,260.977 107.769,262.677" fill="#46A54B"/>
      <path d="M162.389,263.957 C162.389,266.157 161.899,268.267 160.989,270.197 L158.459,269.707 L158.259,269.667 L157.559,269.537 L141.659,266.467 L121.989,262.677 C122.139,261.017 122.559,259.427 123.239,257.937 C123.389,257.587 123.559,257.247 123.749,256.917 C123.739,256.907 123.739,256.907 123.749,256.907 C124.289,255.887 124.959,254.927 125.719,254.037 C129.239,249.907 134.879,247.157 141.319,246.937 C141.599,246.917 141.879,246.917 142.159,246.917 C146.369,246.917 150.279,248.007 153.519,249.857 C155.169,250.797 156.639,251.947 157.889,253.247 C160.699,256.177 162.389,259.907 162.389,263.957" fill="#46A54B"/>
      <path d="M136.649,262.427 C136.739,264.267 136.249,266.037 135.309,267.537 C134.019,269.657 131.839,271.217 129.199,271.677 L106.829,275.537 L61.609,283.347 L61.299,283.397 L61.099,283.427 C60.839,283.447 60.579,283.457 60.329,283.457 C58.009,283.457 55.759,282.567 54.069,280.927 C51.999,278.927 51.019,276.067 51.409,273.217 L56.499,236.567 C56.899,233.747 58.559,231.407 60.839,230.057 C62.529,229.057 64.559,228.607 66.659,228.897 C67.659,229.037 68.609,229.337 69.459,229.767 L68.469,258.377 L68.469,263.927 L83.349,261.357 L106.029,257.437 L106.269,257.397 L107.569,257.167 L113.179,256.207 L125.719,254.037 L126.789,253.857 C126.829,253.847 126.869,253.837 126.909,253.837 C131.519,253.447 135.729,256.637 136.539,261.277 C136.609,261.667 136.649,262.047 136.649,262.427" fill="#000000"/>
    </g>
  </g>
</svg>
