<?xml version="1.0" encoding="UTF-8"?>
<!DOCTYPE svg PUBLIC "-//W3C//DTD SVG 1.1//EN" "http://www.w3.org/Graphics/SVG/1.1/DTD/svg11.dtd">
<svg version="1.1" xmlns="http://www.w3.org/2000/svg" xmlns:xlink="http://www.w3.org/1999/xlink" x="0" y="0" width="296.628" height="389.896" viewBox="0, 0, 296.628, 389.896">
  <defs>
    <linearGradient id="Gradient_1" gradientUnits="userSpaceOnUse" x1="146.196" y1="186.649" x2="146.196" y2="-0.001">
      <stop offset="0" stop-color="#F23043"/>
      <stop offset="0.371" stop-color="#E22488"/>
      <stop offset="1" stop-color="#ED1C26"/>
    </linearGradient>
    <linearGradient id="Gradient_2" gradientUnits="userSpaceOnUse" x1="222.786" y1="100.394" x2="263.906" y2="100.394">
      <stop offset="0" stop-color="#AA004B"/>
      <stop offset="0" stop-color="#AA004B"/>
      <stop offset="0.692" stop-color="#DC2867"/>
      <stop offset="1" stop-color="#DC2867"/>
    </linearGradient>
    <linearGradient id="Gradient_3" gradientUnits="userSpaceOnUse" x1="28.486" y1="99.964" x2="72.966" y2="99.964">
      <stop offset="0" stop-color="#DC2867"/>
      <stop offset="0.308" stop-color="#DC2867"/>
      <stop offset="1" stop-color="#AA004B"/>
      <stop offset="1" stop-color="#AA004B"/>
    </linearGradient>
    <linearGradient id="Gradient_4" gradientUnits="userSpaceOnUse" x1="48.37" y1="201.46" x2="247.677" y2="201.46">
      <stop offset="0" stop-color="#81004B"/>
      <stop offset="1" stop-color="#DC2867"/>
    </linearGradient>
  </defs>
  <g id="Layer_1">
    <g id="Ruby">
      <path d="M26.227,291.183 C25.224,291.183 24.204,291.014 23.205,290.658 C18.523,288.989 16.081,283.84 17.749,279.158 L41.544,212.412 C43.213,207.73 48.363,205.287 53.044,206.956 C57.726,208.625 60.168,213.774 58.499,218.456 L34.705,285.203 C33.392,288.885 29.925,291.183 26.227,291.183" fill="#000000"/>
      <path d="M269.469,291.183 C265.771,291.183 262.304,288.885 260.991,285.203 L237.197,218.456 C235.528,213.774 237.97,208.625 242.652,206.956 C247.334,205.291 252.483,207.73 254.152,212.412 L277.947,279.158 C279.615,283.84 277.173,288.989 272.491,290.658 C271.492,291.013 270.472,291.183 269.469,291.183" fill="#000000"/>
      <path d="M47.226,286.769 C47.226,299.81 36.654,310.382 23.613,310.382 C10.572,310.382 0,299.81 0,286.769 C0,273.728 10.572,263.156 23.613,263.156 C36.654,263.156 47.226,273.728 47.226,286.769" fill="#F23043"/>
      <path d="M296.628,286.769 C296.628,299.81 286.056,310.382 273.015,310.382 C259.974,310.382 249.402,299.81 249.402,286.769 C249.402,273.728 259.974,263.156 273.015,263.156 C286.056,263.156 296.628,273.728 296.628,286.769" fill="#F23043"/>
      <path d="M252.95,299.125 C251.871,301.465 250.586,303.719 249.119,305.865 C244.779,312.241 238.815,317.697 231.99,321.806 C227.711,323.492 222.741,325.031 217.176,326.413 C211.612,327.795 205.454,329.019 198.811,330.038 C183.536,332.414 165.704,333.771 146.671,333.771 C127.639,333.771 109.807,332.414 94.532,330.038 L94.508,330.038 C90.071,329.346 85.852,328.571 81.876,327.734 C71.536,325.516 61.85,320.74 54.164,313.478 C50.721,310.241 47.739,306.617 45.387,302.701 C44.418,301.101 43.557,299.452 42.805,297.755 C44.624,298.179 46.563,298.616 48.6,299.052 C70.772,303.828 105.539,309.235 149.169,309.235 C177.996,309.235 210.691,306.871 246.174,300.41 C248.416,299.998 250.683,299.573 252.95,299.125" fill="#000000"/>
      <path d="M135.31,320.914 C135.31,324.795 132.163,327.942 128.282,327.942 C124.401,327.942 121.254,324.795 121.254,320.914 C121.254,317.033 124.401,313.886 128.282,313.886 C132.163,313.886 135.31,317.033 135.31,320.914" fill="#FFAF00"/>
      <path d="M170.493,320.914 C170.493,324.795 167.347,327.942 163.465,327.942 C159.584,327.942 156.437,324.795 156.437,320.914 C156.437,317.033 159.584,313.886 163.465,313.886 C167.347,313.886 170.493,317.033 170.493,320.914" fill="#FFAF00"/>
      <path d="M68.246,18.309 C62.715,21.35 57.656,24.699 53.126,28.319 L53.126,28.319 C48.646,31.899 44.686,35.759 41.336,39.829 L41.336,39.829 C33.116,49.79 28.486,61.089 28.486,73.069 L28.486,73.069 L28.486,157.589 C28.486,162.159 31.606,166.359 36.566,168.309 L36.566,168.309 C36.596,168.32 36.626,168.329 36.656,168.339 L36.656,168.339 C39.556,169.469 42.556,170.559 45.636,171.609 L45.636,171.609 C73.496,181.049 108.366,186.649 146.186,186.649 L146.186,186.649 C185.066,186.649 220.796,180.73 249.026,170.809 L249.026,170.809 C251.306,170.02 253.536,169.189 255.706,168.339 L255.706,168.339 C255.736,168.329 255.765,168.32 255.796,168.309 L255.796,168.309 C260.776,166.359 263.906,162.159 263.906,157.579 L263.906,157.579 L263.906,73.069 C263.906,61.089 259.266,49.79 251.046,39.829 L251.046,39.829 C248.195,36.38 244.926,33.089 241.266,29.98 L241.266,29.98 C236.246,25.719 230.496,21.809 224.136,18.309 L224.136,18.309 C203.366,6.919 176.086,-0 146.196,-0 L146.196,-0 C116.296,-0 89.006,6.919 68.246,18.309 z" fill="url(#Gradient_1)"/>
      <path d="M222.786,96.48 C222.786,130.219 233.656,159.079 249.026,170.809 L249.026,170.809 C251.306,170.02 253.536,169.189 255.706,168.339 L255.706,168.339 C255.736,168.329 255.765,168.32 255.796,168.309 L255.796,168.309 C260.776,166.359 263.906,162.159 263.906,157.579 L263.906,157.579 L263.906,73.069 C263.906,72.019 263.865,70.979 263.796,69.94 L263.796,69.94 C263.066,59.119 258.545,48.919 251.046,39.829 L251.046,39.829 C248.195,36.38 244.926,33.089 241.266,29.98 L241.266,29.98 C230.126,44.319 222.786,68.749 222.786,96.48 z" fill="url(#Gradient_2)"/>
      <path d="M41.336,39.829 C33.116,49.79 28.486,61.089 28.486,73.069 L28.486,73.069 L28.486,157.589 C28.486,162.159 31.606,166.359 36.566,168.309 L36.566,168.309 C36.596,168.32 36.626,168.329 36.656,168.339 L36.656,168.339 C39.556,169.469 42.556,170.559 45.636,171.609 L45.636,171.609 C61.586,160.439 72.965,131.019 72.965,96.48 L72.965,96.48 C72.965,67.649 65.036,42.379 53.126,28.319 L53.126,28.319 C48.646,31.899 44.686,35.759 41.336,39.829 z" fill="url(#Gradient_3)"/>
      <path d="M61.365,192.18 C56.164,192.18 51.485,194.545 48.369,198.278 L48.369,198.278 C135.75,222.571 220.522,205.067 247.677,198.145 L247.677,198.145 C244.55,194.483 239.918,192.18 234.778,192.18 L234.778,192.18 z" fill="url(#Gradient_4)"/>
      <path d="M115.982,91.089 C115.982,91.268 115.982,91.447 115.969,91.626 C110.379,89.234 103.497,87.827 96.053,87.827 C88.608,87.827 81.726,89.234 76.136,91.626 C76.123,91.447 76.123,91.268 76.123,91.089 C76.123,80.088 85.052,71.159 96.053,71.159 C107.066,71.159 115.982,80.088 115.982,91.089" fill="#211D38"/>
      <path d="M219.632,91.089 C219.632,91.268 219.632,91.447 219.619,91.626 C214.029,89.234 207.147,87.827 199.703,87.827 C192.258,87.827 185.376,89.234 179.786,91.626 C179.773,91.447 179.773,91.268 179.773,91.089 C179.773,80.088 188.702,71.159 199.703,71.159 C210.716,71.159 219.632,80.088 219.632,91.089" fill="#211D38"/>
      <path d="M263.906,74.289 L263.906,147.279 L262.486,147.279 C255.886,147.279 250.486,141.879 250.486,135.279 L250.486,83.159 C250.486,76.559 255.886,71.159 262.486,71.159 L263.796,71.159 C263.866,72.199 263.906,73.239 263.906,74.289" fill="#211D38"/>
      <path d="M28.486,144.149 L28.486,71.159 L29.906,71.159 C36.506,71.159 41.906,76.559 41.906,83.159 L41.906,135.279 C41.906,141.879 36.506,147.279 29.906,147.279 L28.596,147.279 C28.526,146.239 28.486,145.199 28.486,144.149" fill="#211D38"/>
      <path d="M97.349,373.692 C92.666,373.692 88.715,370.068 88.381,365.325 L85.132,319.258 C84.783,314.3 88.518,309.998 93.476,309.648 C98.436,309.283 102.738,313.035 103.087,317.993 L106.336,364.059 C106.685,369.017 102.95,373.32 97.992,373.67 C97.776,373.685 97.561,373.692 97.349,373.692" fill="#000000"/>
      <path d="M193.29,373.692 C193.211,373.692 193.132,373.691 193.052,373.689 C188.083,373.56 184.16,369.427 184.289,364.459 L185.483,318.392 C185.612,313.422 189.765,309.507 194.713,309.629 C199.682,309.757 203.606,313.89 203.477,318.859 L202.283,364.925 C202.156,369.815 198.152,373.692 193.29,373.692" fill="#000000"/>
      <path d="M67.501,389.896 L109.568,389.896 C117.976,389.896 124.412,382.427 123.188,374.108 C121.414,362.057 112.578,347.911 80.074,350.444 C53.495,352.515 51.792,368.034 54.031,378.978 C55.335,385.352 60.995,389.896 67.501,389.896" fill="#F23043"/>
      <path d="M224.891,389.896 L182.824,389.896 C174.416,389.896 167.98,382.427 169.204,374.108 C170.978,362.057 179.814,347.911 212.318,350.444 C238.897,352.515 240.6,368.034 238.361,378.978 C237.057,385.352 231.396,389.896 224.891,389.896" fill="#F23043"/>
      <path d="M256.672,282.47 C256.672,288.337 255.326,293.95 252.95,299.126 C250.683,299.575 248.417,299.999 246.174,300.411 C210.691,306.873 177.996,309.237 149.169,309.237 C105.54,309.237 70.772,303.83 48.6,299.054 C46.563,298.617 44.624,298.181 42.806,297.756 C40.672,292.956 39.484,287.816 39.484,282.47 L44.478,207.977 C44.733,204.292 46.151,200.934 48.37,198.278 C51.485,194.545 56.165,192.181 61.365,192.181 L234.779,192.181 C239.919,192.181 244.549,194.484 247.677,198.145 C249.956,200.824 251.423,204.219 251.665,207.977 z" fill="#F23043"/>
    </g>
  </g>
</svg>
