<?xml version="1.0" encoding="UTF-8"?>
<!DOCTYPE svg PUBLIC "-//W3C//DTD SVG 1.1//EN" "http://www.w3.org/Graphics/SVG/1.1/DTD/svg11.dtd">
<svg version="1.1" xmlns="http://www.w3.org/2000/svg" xmlns:xlink="http://www.w3.org/1999/xlink" x="0" y="0" width="351.333" height="455.871" viewBox="0, 0, 351.333, 455.871">
  <defs>
    <linearGradient id="Gradient_1" gradientUnits="userSpaceOnUse" x1="141.956" y1="142.09" x2="293.018" y2="142.09">
      <stop offset="0" stop-color="#FFC009"/>
      <stop offset="1" stop-color="#F87600"/>
    </linearGradient>
    <linearGradient id="Gradient_2" gradientUnits="userSpaceOnUse" x1="135.701" y1="248.52" x2="229.274" y2="248.52">
      <stop offset="0" stop-color="#FFC009"/>
      <stop offset="0.319" stop-color="#F68C00"/>
      <stop offset="1" stop-color="#FA6502"/>
      <stop offset="1" stop-color="#FA6502"/>
    </linearGradient>
  </defs>
  <g id="Layer_1">
    <g id="Codey">
      <path d="M148.178,422.721 C147.4,422.721 146.61,422.622 145.823,422.416 C140.871,421.119 137.908,416.053 139.205,411.101 L154.431,352.982 C155.729,348.03 160.794,345.067 165.747,346.364 C170.699,347.662 173.661,352.728 172.364,357.68 L157.138,415.799 C156.047,419.963 152.29,422.721 148.178,422.721" fill="#000000"/>
      <path d="M239.531,430.858 C235.127,430.858 231.221,427.707 230.418,423.22 L217.535,351.213 C216.633,346.174 219.987,341.358 225.026,340.456 C230.065,339.555 234.881,342.909 235.783,347.948 L248.666,419.955 C249.567,424.994 246.213,429.81 241.174,430.712 C240.623,430.81 240.073,430.858 239.531,430.858" fill="#000000"/>
      <path d="M282.557,310.349 C280.243,310.349 277.932,309.487 276.139,307.768 L228.284,261.85 C224.59,258.305 224.469,252.438 228.013,248.744 C231.558,245.051 237.425,244.929 241.119,248.473 L282.676,288.348 L316.992,256.626 C320.751,253.151 326.615,253.381 330.09,257.14 C333.565,260.899 333.333,266.763 329.574,270.238 L288.85,307.886 C287.072,309.53 284.814,310.349 282.557,310.349" fill="#000000"/>
      <path d="M351.333,253.854 C351.333,266.895 340.761,277.467 327.72,277.467 C314.679,277.467 304.107,266.895 304.107,253.854 C304.107,240.813 314.679,230.241 327.72,230.241 C340.761,230.241 351.333,240.813 351.333,253.854" fill="#FFAF00"/>
      <path d="M246.261,322.135 C245.964,328.304 245.052,333.586 243.321,337.319 C233.647,358.158 152.274,365.973 139.754,346.437 C136.974,342.096 135.063,335.151 133.774,326.972 C147.768,344.406 225.433,339.167 246.261,322.135" fill="#000000"/>
      <path d="M110.489,455.302 L152.556,455.302 C160.964,455.302 167.4,447.833 166.176,439.514 C164.402,427.463 155.566,413.317 123.062,415.85 C96.483,417.921 94.78,433.44 97.019,444.384 C98.323,450.758 103.983,455.302 110.489,455.302" fill="#FFAF00"/>
      <path d="M272.846,455.871 L230.779,455.871 C222.371,455.871 215.935,448.402 217.159,440.083 C218.933,428.032 227.769,413.886 260.273,416.419 C286.852,418.49 288.555,434.009 286.316,444.953 C285.012,451.327 279.352,455.871 272.846,455.871" fill="#FFAF00"/>
      <path d="M37.987,132.017 C37.987,132.017 -4.012,124.737 0.312,174.446 C4.561,223.286 55.003,209.863 55.003,209.863 C55.003,209.863 30.146,149.465 37.987,132.017" fill="#000000"/>
      <path d="M277.583,94.774 C277.583,94.774 318.061,74.231 329.203,126.186 C340.148,177.234 284.6,179.342 284.6,179.342 C284.6,179.342 291.02,110.084 277.583,94.774" fill="#000000"/>
      <path d="M213.714,50.128 C228.53,55.601 244.923,64.741 226.659,74.481 L226.659,74.481 C197.481,90.038 193.776,112.925 193.776,112.925 L193.776,112.925 C193.776,112.925 222.366,110.9 226.659,144.12 L226.659,144.12 C230.951,177.343 141.956,234.057 141.956,234.057 L141.956,234.057 C198.496,230.743 250.105,211.373 271.03,202.552 L271.03,202.552 C277.877,199.665 283.282,194.235 285.977,187.444 L285.977,187.444 C305.689,137.778 280.259,76.799 255.837,58.923 L255.837,58.923 C247.095,52.522 232.655,50.122 215.187,50.122 L215.187,50.122 C214.699,50.122 214.206,50.124 213.714,50.128 z" fill="url(#Gradient_1)"/>
      <path d="M193.776,112.926 C193.776,112.926 222.367,110.901 226.659,144.121 C230.951,177.343 141.956,234.058 141.956,234.058 C124.496,235.081 106.569,234.577 88.926,231.753 C75.95,229.677 64.456,222.43 57.172,211.735 C45.445,194.507 30.846,164.912 37.309,130.488 C37.964,127.009 38.515,123.51 39.023,120.005 C40.842,107.45 49.969,73.92 95.654,66.125 C132.784,59.791 178.972,50.388 213.714,50.129 C228.53,55.601 244.923,64.742 226.659,74.482 C197.481,90.039 193.776,112.926 193.776,112.926" fill="#FFAF00"/>
      <path d="M15.002,152.591 C14.879,152.055 11.997,139.266 12.683,121.208 C13.087,110.603 14.642,100.329 17.306,90.673 C20.659,78.519 25.785,67.317 32.541,57.38 C52.262,28.37 85.41,10.14 131.063,3.199 C163.502,-1.734 192.789,-0.958 218.112,5.506 C238.631,10.744 256.6,19.698 271.518,32.119 C297.106,53.424 304.763,77.438 305.076,78.45 L305.185,78.801 L308.098,94.281 L295.485,96.654 L292.72,81.961 C292.297,80.738 290.446,75.715 286.456,68.981 C282.246,61.878 274.714,51.347 262.736,41.51 C249.281,30.461 233.023,22.486 214.415,17.809 C190.889,11.896 163.494,11.249 132.992,15.887 C91.072,22.261 60.871,38.612 43.229,64.486 C37.286,73.202 32.756,83.056 29.764,93.774 C27.348,102.435 25.921,111.683 25.525,121.261 C24.844,137.736 27.485,149.608 27.512,149.726 z" fill="#000000"/>
      <path d="M160.265,144.366 C158.081,144.713 156.343,145.868 155.047,147.12 C153.243,148.864 152.34,151.341 152.543,153.842 C153.372,164.049 152.458,198.327 102.947,199.294 C44.75,200.433 58.402,143.45 58.402,143.45 C68.5,129.139 124.284,133.39 141.588,135.162 C148.902,135.91 155.617,135.49 160.932,134.759 L160.93,134.747 C166.174,133.556 172.638,131.572 179.245,128.272 C194.81,120.5 245.494,96.817 259.998,106.638 C259.998,106.638 292.9,155.123 238.052,174.618 C191.407,191.197 178.436,159.476 175.601,149.624 C174.905,147.209 173.182,145.206 170.872,144.216 C169.225,143.51 167.202,143.05 165.047,143.492 C163.459,143.818 161.866,144.112 160.265,144.366" fill="#000000"/>
      <path d="M135.701,252.44 C153.757,258.287 184.872,261.76 229.274,243.961 L229.274,243.961 C223.158,242.344 208.399,239.869 191.251,239.87 L191.251,239.87 C172.912,239.87 151.842,242.701 135.701,252.44 z" fill="url(#Gradient_2)"/>
      <path d="M149.794,347.683 C149.794,360.724 139.222,371.296 126.181,371.296 C113.14,371.296 102.568,360.724 102.568,347.683 C102.568,334.642 113.14,324.07 126.181,324.07 C139.222,324.07 149.794,334.642 149.794,347.683" fill="#FFAF00"/>
      <path d="M183.929,347.683 C183.929,350.943 181.286,353.586 178.026,353.586 C174.765,353.586 172.122,350.943 172.122,347.683 C172.122,344.423 174.765,341.78 178.026,341.78 C181.286,341.78 183.929,344.423 183.929,347.683" fill="#FFAF00"/>
      <path d="M213.519,344.982 C213.519,348.242 210.876,350.885 207.616,350.885 C204.355,350.885 201.712,348.242 201.712,344.982 C201.712,341.722 204.355,339.079 207.616,339.079 C210.876,339.079 213.519,341.722 213.519,344.982" fill="#FFAF00"/>
      <path d="M122.965,345.29 C121.122,345.29 119.261,344.742 117.639,343.601 L76.668,314.769 C74.335,313.128 72.888,310.503 72.745,307.654 C72.602,304.805 73.779,302.049 75.935,300.182 L125.252,257.482 C129.122,254.132 134.975,254.553 138.326,258.423 C141.677,262.292 141.256,268.146 137.386,271.497 L97.035,306.434 L128.307,328.44 C132.494,331.386 133.499,337.168 130.553,341.354 C128.749,343.919 125.879,345.29 122.965,345.29" fill="#000000"/>
      <path d="M246.261,322.135 C225.433,339.167 147.768,344.406 133.774,326.972 C129.259,298.344 132.356,254.612 132.356,254.612 C133.446,253.853 134.561,253.129 135.702,252.442 C153.757,258.288 184.872,261.762 229.275,243.963 C230.572,244.305 231.479,244.61 231.938,244.844 C236.142,246.983 247.63,293.875 246.261,322.135" fill="#FFAF00"/>
    </g>
  </g>
</svg>
