<?xml version="1.0" encoding="UTF-8"?>
<!DOCTYPE svg PUBLIC "-//W3C//DTD SVG 1.1//EN" "http://www.w3.org/Graphics/SVG/1.1/DTD/svg11.dtd">
<svg version="1.1" xmlns="http://www.w3.org/2000/svg" xmlns:xlink="http://www.w3.org/1999/xlink" x="0" y="0" width="326.538" height="443.052" viewBox="0, 0, 326.538, 443.052">
  <defs>
    <linearGradient id="Gradient_1" gradientUnits="userSpaceOnUse" x1="115.814" y1="233.702" x2="209.387" y2="233.702">
      <stop offset="0" stop-color="#0463F0"/>
      <stop offset="1" stop-color="#211D38"/>
    </linearGradient>
    <linearGradient id="Gradient_2" gradientUnits="userSpaceOnUse" x1="20.718" y1="145.805" x2="89.558" y2="145.805">
      <stop offset="0" stop-color="#009EE1"/>
      <stop offset="1" stop-color="#000000" stop-opacity="0"/>
    </linearGradient>
  </defs>
  <g id="Layer_1">
    <g id="Sad_Blue">
      <path d="M260.798,11.825 L202.228,70.395 C195.898,69.755 189.358,69.265 182.618,68.955 L250.268,1.305 C252.008,-0.435 254.828,-0.435 256.568,1.305 L260.798,5.535 C262.528,7.275 262.528,10.085 260.798,11.825" fill="#000000"/>
      <path d="M89.558,206.875 L57.458,207.245 L52.388,207.305 L51.898,207.315 C51.068,207.235 49.388,207.305 47.098,207.275 L46.998,207.275 L20.718,98.725 L20.728,98.715 C22.858,97.135 24.958,95.875 26.938,94.875 C27.698,94.485 28.438,94.135 29.168,93.825 C29.388,93.725 29.608,93.635 29.848,93.545 C29.898,93.525 29.948,93.495 30.008,93.475 C36.188,90.925 44.868,87.645 55.658,84.295 L74.628,152.875 L77.878,164.635 L79.528,170.615 L80.878,175.505 C80.888,175.505 80.888,175.515 80.878,175.515 z" fill="#0463F0"/>
      <path d="M324.511,130.013 C324.479,129.865 324.447,129.717 324.414,129.571 C324.447,129.717 324.479,129.865 324.511,130.013" fill="#000000"/>
      <path d="M311.758,104.085 C311.858,104.185 311.958,104.295 312.048,104.395 C311.897,104.227 311.742,104.076 311.59,103.912 C311.645,103.972 311.702,104.024 311.758,104.085" fill="#0463F0"/>
      <path d="M309.838,102.145 C309.668,101.975 309.498,101.815 309.328,101.665 C309.018,101.375 308.708,101.105 308.398,100.835 C308.548,100.955 308.688,101.085 308.838,101.215 C309.078,101.425 309.328,101.645 309.568,101.875 C309.658,101.965 309.748,102.055 309.838,102.145" fill="#0463F0"/>
      <path d="M312.468,104.875 C312.778,105.215 313.078,105.565 313.378,105.925 C312.948,105.395 312.508,104.885 312.048,104.395 C312.188,104.555 312.328,104.715 312.468,104.875" fill="#0463F0"/>
      <path d="M314.678,107.575 C314.888,107.855 315.108,108.145 315.318,108.435 C314.898,107.845 314.468,107.265 314.018,106.715 C314.238,106.995 314.458,107.285 314.678,107.575" fill="#0463F0"/>
      <path d="M320.308,117.115 C320.468,117.465 320.628,117.815 320.768,118.165 C320.688,117.985 320.618,117.805 320.528,117.625 C320.388,117.295 320.248,116.985 320.098,116.665 C320.168,116.815 320.238,116.965 320.308,117.115" fill="#0463F0"/>
      <path d="M322.858,123.775 C322.938,124.045 323.028,124.315 323.098,124.585 C323.038,124.355 322.968,124.125 322.888,123.895 C322.798,123.605 322.708,123.315 322.608,123.035 C322.698,123.275 322.778,123.525 322.858,123.775" fill="#0463F0"/>
      <path d="M325.12,133.067 C324.935,132.021 324.729,131.008 324.511,130.013 C324.728,131.008 324.935,132.02 325.12,133.067" fill="#000000"/>
      <path d="M326.538,150.175 L326.538,150.365 C326.538,151.835 326.508,153.275 326.458,154.665 C326.398,156.635 326.278,158.525 326.108,160.345 C325.988,161.765 325.828,163.135 325.648,164.465 C325.538,165.315 325.408,166.155 325.268,166.975 C325.058,168.205 324.838,169.405 324.588,170.565 C324.448,171.205 324.298,171.835 324.148,172.455 C323.698,174.315 323.178,176.085 322.618,177.755 C321.458,181.175 320.088,184.195 318.548,186.875 C318.378,187.165 318.208,187.455 318.038,187.745 C317.688,188.315 317.338,188.855 316.978,189.395 C316.618,189.925 316.248,190.445 315.878,190.945 L315.878,190.955 C315.498,191.455 315.118,191.945 314.738,192.415 C314.738,192.415 314.748,192.425 314.738,192.425 C303.718,205.895 287.808,207.185 279.538,207.275 L305.888,98.805 C306.418,99.195 306.948,99.615 307.478,100.055 C307.788,100.305 308.088,100.565 308.398,100.835 C308.548,100.955 308.688,101.085 308.838,101.215 C308.918,101.295 308.998,101.365 309.078,101.435 C309.168,101.515 309.248,101.585 309.328,101.665 C309.408,101.735 309.488,101.805 309.568,101.875 C309.658,101.965 309.748,102.055 309.838,102.145 C310.518,102.785 311.198,103.475 311.868,104.205 L311.898,104.235 C312.088,104.445 312.278,104.655 312.468,104.875 C312.708,105.145 312.948,105.425 313.178,105.705 C313.458,106.035 313.738,106.375 314.018,106.715 C314.238,106.995 314.458,107.285 314.678,107.575 C316.728,110.295 318.648,113.455 320.318,117.145 C320.468,117.465 320.608,117.785 320.738,118.105 C321.418,119.655 322.038,121.295 322.608,123.035 C322.688,123.255 322.758,123.475 322.828,123.695 C322.848,123.765 322.868,123.825 322.888,123.895 C322.918,123.985 322.948,124.075 322.978,124.175 C323.018,124.305 323.058,124.445 323.098,124.585 C323.628,126.305 324.098,128.115 324.508,130.015 C324.618,130.515 324.728,131.015 324.828,131.525 C324.928,132.035 325.028,132.545 325.118,133.065 C325.178,133.425 325.248,133.785 325.308,134.155 C325.508,135.395 325.688,136.675 325.848,137.985 C326.108,140.185 326.298,142.485 326.408,144.885 C326.418,145.045 326.428,145.195 326.428,145.355 C326.458,145.865 326.478,146.375 326.488,146.885 C326.518,147.965 326.538,149.055 326.538,150.175" fill="#000000"/>
      <path d="M257.388,178.195 C253.518,178.195 250.378,175.055 250.378,171.185 C250.378,171.045 250.378,170.895 250.398,170.755 C249.248,171.035 248.048,171.185 246.808,171.185 C238.368,171.185 231.528,164.335 231.528,155.895 C231.528,148.555 236.698,142.415 243.598,140.955 C245.098,147.825 251.218,152.965 258.538,152.965 C259.638,152.965 260.718,152.845 261.748,152.625 C261.978,153.665 262.098,154.775 262.098,155.895 C262.098,159.075 261.128,162.035 259.458,164.485 C262.318,165.365 264.398,168.025 264.398,171.185 C264.398,175.055 261.258,178.195 257.388,178.195 M299.598,94.875 C298.838,94.485 298.098,94.135 297.368,93.825 C297.098,93.705 296.818,93.595 296.528,93.475 C296.128,93.315 295.718,93.145 295.298,92.975 C287.248,89.705 275.398,85.375 260.488,81.265 C244.368,76.835 224.658,72.675 202.228,70.395 C195.898,69.755 189.358,69.265 182.618,68.955 C176.378,68.675 169.978,68.555 163.418,68.615 L163.118,68.615 C126.928,68.265 95.378,73.645 71.098,79.925 C69.378,80.365 67.698,80.815 66.048,81.265 C62.398,82.275 58.928,83.285 55.658,84.295 L74.628,152.875 C79.318,152.385 83.388,149.775 85.828,146.005 C86.778,144.565 87.478,142.945 87.888,141.215 C94.268,143.055 98.928,148.915 98.928,155.895 C98.928,161.665 95.738,166.685 91.028,169.285 C88.838,170.495 86.318,171.185 83.648,171.185 C83.218,171.185 82.798,171.165 82.378,171.125 L82.378,171.185 C82.378,172.805 81.828,174.315 80.878,175.505 C80.888,175.505 80.888,175.515 80.878,175.515 L89.558,206.875 L91.198,206.855 L99.378,206.755 L163.238,205.995 L163.298,205.995 L235.338,206.855 L267.548,207.225 L274.148,207.305 L274.638,207.315 C275.478,207.235 277.198,207.305 279.538,207.275 L305.888,98.807 C303.732,97.18 301.597,95.887 299.598,94.875" fill="#0463F0"/>
      <path d="M307.478,100.055 C306.947,99.611 306.417,99.207 305.888,98.807 L305.888,98.805 C306.418,99.195 306.948,99.615 307.478,100.055" fill="#FFFFFF"/>
      <path d="M91.028,169.285 C88.838,170.495 86.318,171.185 83.648,171.185 C83.218,171.185 82.798,171.165 82.378,171.125 L82.378,171.185 C82.378,172.805 81.828,174.315 80.878,175.505 L79.528,170.615 L77.878,164.635 L74.628,152.875 C79.318,152.385 83.388,149.775 85.828,146.005 z" fill="#0463F0"/>
      <path d="M98.928,155.895 C98.928,161.665 95.738,166.685 91.028,169.285 L85.828,146.005 C86.778,144.565 87.478,142.945 87.888,141.215 C94.268,143.055 98.928,148.915 98.928,155.895" fill="#0463F0"/>
      <path d="M264.398,171.185 C264.398,175.055 261.258,178.195 257.388,178.195 C253.518,178.195 250.378,175.055 250.378,171.185 C250.378,171.045 250.378,170.895 250.398,170.755 C249.248,171.035 248.048,171.185 246.808,171.185 C238.368,171.185 231.528,164.335 231.528,155.895 C231.528,148.555 236.698,142.415 243.598,140.955 C245.098,147.825 251.218,152.965 258.538,152.965 C259.638,152.965 260.718,152.845 261.748,152.625 C261.978,153.665 262.098,154.775 262.098,155.895 C262.098,159.075 261.128,162.035 259.458,164.485 C262.318,165.365 264.398,168.025 264.398,171.185" fill="#0463F0"/>
      <path d="M138.226,409.711 C137.473,409.905 136.683,410.005 135.868,409.999 C130.744,409.958 126.594,405.717 126.597,400.526 L126.642,339.609 C126.646,334.418 130.802,330.244 135.926,330.285 C141.05,330.325 145.201,334.566 145.197,339.757 L145.152,400.674 C145.149,405.039 142.208,408.686 138.226,409.711" fill="#000000"/>
      <path d="M219.644,416.039 C215.24,416.039 211.334,412.888 210.531,408.401 L197.648,336.394 C196.746,331.355 200.1,326.539 205.139,325.637 C210.178,324.736 214.994,328.09 215.896,333.129 L228.779,405.136 C229.68,410.175 226.326,414.991 221.287,415.893 C220.735,415.991 220.186,416.039 219.644,416.039" fill="#000000"/>
      <path d="M226.373,307.316 C226.076,313.485 225.164,318.767 223.433,322.5 C213.759,343.339 132.386,351.154 119.866,331.618 C117.086,327.277 115.175,320.332 113.886,312.153 C127.88,329.587 205.545,324.348 226.373,307.316" fill="#000000"/>
      <path d="M102.302,440.484 L144.369,440.484 C152.777,440.484 159.213,433.015 157.989,424.696 C156.215,412.645 147.379,398.499 114.875,401.032 C88.296,403.103 86.593,418.622 88.832,429.566 C90.136,435.94 95.796,440.484 102.302,440.484" fill="#0463F0"/>
      <path d="M252.958,443.052 L210.891,443.052 C202.483,443.052 196.047,435.583 197.271,427.264 C199.045,415.213 207.881,401.067 240.385,403.6 C266.964,405.671 268.667,421.19 266.428,432.134 C265.124,438.508 259.464,443.052 252.958,443.052" fill="#0463F0"/>
      <path d="M115.814,237.622 C133.87,243.468 164.984,246.942 209.387,229.143 L209.387,229.143 C203.271,227.526 188.51,225.051 171.363,225.051 L171.363,225.051 C153.024,225.051 131.955,227.882 115.814,237.622 z" fill="url(#Gradient_1)"/>
      <path d="M164.042,332.865 C164.042,336.125 161.399,338.768 158.139,338.768 C154.878,338.768 152.235,336.125 152.235,332.865 C152.235,329.605 154.878,326.962 158.139,326.962 C161.399,326.962 164.042,329.605 164.042,332.865" fill="#FFAF00"/>
      <path d="M193.632,330.163 C193.632,333.423 190.989,336.066 187.729,336.066 C184.468,336.066 181.825,333.423 181.825,330.163 C181.825,326.903 184.468,324.26 187.729,324.26 C190.989,324.26 193.632,326.903 193.632,330.163" fill="#FFAF00"/>
      <path d="M226.373,307.316 C205.545,324.348 127.88,329.587 113.886,312.153 C109.371,283.525 112.468,239.793 112.468,239.793 C113.558,239.034 114.673,238.31 115.814,237.623 C133.869,243.469 164.984,246.943 209.387,229.144 C210.684,229.486 211.591,229.791 212.05,230.025 C216.254,232.164 227.742,279.056 226.373,307.316" fill="#0463F0"/>
      <path d="M262.098,155.895 C262.098,159.075 261.128,162.035 259.458,164.485 C257.358,167.575 254.148,169.855 250.398,170.755 C249.248,171.035 248.048,171.185 246.808,171.185 C238.368,171.185 231.528,164.335 231.528,155.895 C231.528,148.555 236.698,142.415 243.598,140.955 C245.098,147.825 251.218,152.965 258.538,152.965 C259.638,152.965 260.718,152.845 261.748,152.625 C261.978,153.665 262.098,154.775 262.098,155.895" fill="#211D38"/>
      <path d="M264.398,171.185 C264.398,175.055 261.258,178.195 257.388,178.195 C253.518,178.195 250.378,175.055 250.378,171.185 C250.378,171.045 250.378,170.895 250.398,170.755 C250.618,167.075 253.658,164.165 257.388,164.165 C258.108,164.165 258.808,164.275 259.458,164.485 C262.318,165.365 264.398,168.025 264.398,171.185" fill="#009EE1"/>
      <path d="M112.349,241.7 C110.659,241.85 108.989,242.46 107.509,243.52 L59.949,277.66 C56.359,280.24 54.889,284.85 56.319,289.03 C57.709,293.08 61.519,295.78 65.779,295.78 L66.159,295.78 L112.029,294.04 L144.549,292.81 C150.069,292.6 154.369,287.96 154.169,282.44 C153.959,276.92 149.289,272.62 143.799,272.83 L111.439,274.05 L98.599,274.54 L111.479,265.29 z" fill="#000000"/>
      <path d="M176.394,283.703 C176.394,296.744 165.822,307.316 152.781,307.316 C139.74,307.316 129.168,296.744 129.168,283.703 C129.168,270.662 139.74,260.09 152.781,260.09 C165.822,260.09 176.394,270.662 176.394,283.703" fill="#009EE0"/>
      <path d="M221.929,261.94 L236.179,272.18 L223.619,271.45 L194.209,269.73 C188.699,269.42 183.969,273.62 183.649,279.14 C183.329,284.65 187.539,289.38 193.049,289.7 L226.049,291.62 L269.439,294.15 C269.629,294.16 269.829,294.16 270.019,294.16 C274.229,294.16 278.019,291.51 279.439,287.5 C280.929,283.31 279.459,278.64 275.849,276.04 L222.719,237.9 C220.479,236.29 217.799,235.74 215.279,236.15 z" fill="#000000"/>
      <path d="M205.561,284.87 C205.561,295.794 196.705,304.651 185.78,304.651 C174.856,304.651 166,295.794 166,284.87 C166,273.946 174.856,265.089 185.78,265.089 C196.705,265.089 205.561,273.946 205.561,284.87" fill="#0463F0"/>
      <path d="M217.245,283.703 C217.245,296.744 206.673,307.316 193.632,307.316 C180.591,307.316 170.019,296.744 170.019,283.703 C170.019,270.662 180.591,260.09 193.632,260.09 C206.673,260.09 217.245,270.662 217.245,283.703" fill="#009EE0"/>
      <path d="M326.538,151.175 L326.538,151.365 C326.538,152.835 326.508,154.275 326.458,155.665 C326.398,157.635 326.278,159.525 326.108,161.345 C325.988,162.765 325.828,164.135 325.648,165.465 C325.538,166.315 325.408,167.155 325.268,167.975 C325.068,169.205 324.848,170.405 324.588,171.565 C324.448,172.205 324.298,172.835 324.148,173.455 C323.708,175.315 323.198,177.085 322.618,178.755 C321.458,182.175 320.088,185.195 318.548,187.875 C318.378,188.165 318.208,188.455 318.038,188.745 C317.688,189.305 317.338,189.865 316.978,190.395 C316.618,190.925 316.258,191.445 315.878,191.945 L315.878,191.955 C315.508,192.455 315.128,192.945 314.738,193.415 C314.738,193.415 314.748,193.425 314.738,193.425 C303.738,206.935 287.798,208.225 279.528,208.315 L279.538,208.275 L305.888,99.805 C306.418,100.195 306.948,100.615 307.478,101.055 C307.788,101.305 308.088,101.565 308.398,101.835 C308.548,101.955 308.688,102.085 308.838,102.215 C308.918,102.295 308.998,102.365 309.078,102.435 C309.168,102.515 309.248,102.585 309.328,102.665 C309.408,102.735 309.488,102.805 309.568,102.875 C309.658,102.965 309.748,103.055 309.838,103.145 C310.518,103.785 311.198,104.475 311.868,105.205 L311.898,105.235 C312.088,105.445 312.278,105.655 312.468,105.875 C312.708,106.145 312.948,106.425 313.178,106.705 C313.458,107.035 313.738,107.375 314.018,107.715 C314.238,107.995 314.458,108.285 314.678,108.575 C316.728,111.295 318.648,114.455 320.318,118.145 C320.468,118.465 320.608,118.785 320.738,119.105 C321.418,120.655 322.038,122.295 322.608,124.035 C322.688,124.255 322.758,124.475 322.828,124.695 C322.848,124.765 322.868,124.825 322.888,124.895 C322.918,124.985 322.948,125.075 322.978,125.175 C323.018,125.305 323.058,125.445 323.098,125.585 C323.628,127.305 324.098,129.115 324.508,131.015 C324.618,131.515 324.728,132.015 324.828,132.525 C324.928,133.035 325.028,133.545 325.118,134.065 C325.178,134.425 325.248,134.785 325.308,135.155 C325.508,136.395 325.688,137.675 325.848,138.985 C326.108,141.185 326.298,143.485 326.408,145.885 C326.418,146.045 326.428,146.195 326.428,146.355 C326.458,146.865 326.478,147.375 326.488,147.885 C326.518,148.965 326.538,150.055 326.538,151.175" fill="#000000"/>
      <path d="M30.008,93.475 C29.948,93.495 29.898,93.525 29.848,93.545 L29.848,93.545 C29.608,93.635 29.389,93.725 29.168,93.825 L29.168,93.825 C28.438,94.136 27.698,94.485 26.938,94.875 L26.938,94.875 C24.958,95.875 22.858,97.135 20.728,98.715 L20.728,98.715 L20.718,98.725 L46.998,207.276 L47.098,207.276 C48.012,207.288 48.83,207.284 49.534,207.28 L49.534,207.28 C50.593,207.274 51.399,207.267 51.899,207.315 L51.899,207.315 L52.388,207.305 L57.458,207.245 L89.558,206.875 L80.878,175.515 C80.888,175.515 80.888,175.505 80.878,175.505 L80.878,175.505 L79.528,170.615 L77.878,164.635 L74.628,152.875 L55.659,84.295 C44.869,87.645 36.188,90.925 30.008,93.475 z" fill="url(#Gradient_2)"/>
      <path d="M20.73,98.717 L47.1,207.277 L47,207.277 C37.63,207.167 18.66,205.477 7.91,186.647 C6.91,184.887 5.98,182.997 5.14,180.927 C5.12,180.907 5.12,180.897 5.12,180.877 C4.91,180.377 4.71,179.857 4.52,179.337 C4.32,178.797 4.12,178.247 3.93,177.697 C3.56,176.567 3.2,175.417 2.87,174.217 C2.71,173.617 2.55,173.007 2.4,172.387 C2.24,171.757 2.09,171.127 1.95,170.487 C1.81,169.837 1.68,169.187 1.56,168.517 C1.45,167.987 1.36,167.437 1.27,166.887 C1.23,166.657 1.19,166.427 1.16,166.197 C1.07,165.597 0.98,164.987 0.89,164.377 C0.8,163.657 0.71,162.927 0.63,162.187 C0.55,161.547 0.49,160.907 0.43,160.247 C0.41,160.057 0.39,159.857 0.38,159.657 C0.28,158.477 0.2,157.257 0.14,156.017 C0.13,155.947 0.13,155.877 0.13,155.797 C0.11,155.417 0.09,155.027 0.08,154.637 L0.08,154.557 C0.06,153.967 0.04,153.357 0.03,152.747 C0.01,151.927 -0,151.087 -0,150.247 L-0,150.057 C-0,148.927 0.02,147.837 0.05,146.757 C0.06,146.247 0.08,145.737 0.11,145.227 C0.11,145.067 0.12,144.917 0.13,144.757 C0.19,143.327 0.29,141.947 0.4,140.607 C0.45,140.117 0.5,139.617 0.54,139.137 C0.73,137.367 0.96,135.657 1.23,133.997 C1.29,133.627 1.36,133.267 1.42,132.907 C1.52,132.337 1.62,131.787 1.73,131.237 C2.05,129.577 2.43,127.987 2.85,126.467 C6.68,112.267 13.83,103.867 20.72,98.727 z" fill="#000000"/>
      <path d="M98.928,155.895 C98.928,161.665 95.738,166.685 91.028,169.285 C88.838,170.495 86.318,171.185 83.648,171.185 C83.218,171.185 82.798,171.165 82.378,171.125 C81.398,171.055 80.448,170.875 79.528,170.615 C76.338,169.725 73.568,167.825 71.588,165.285 C69.558,162.695 68.358,159.435 68.358,155.895 C68.358,154.665 68.498,153.495 68.768,152.365 C70.118,152.755 71.538,152.965 73.018,152.965 C73.558,152.965 74.098,152.935 74.628,152.875 C79.318,152.385 83.388,149.775 85.828,146.005 C86.778,144.565 87.478,142.945 87.888,141.215 C94.268,143.055 98.928,148.915 98.928,155.895" fill="#211D38"/>
      <path d="M82.378,171.125 L82.378,171.185 C82.378,172.805 81.828,174.315 80.878,175.505 C80.888,175.505 80.888,175.515 80.878,175.515 C79.598,177.145 77.608,178.195 75.368,178.195 C71.498,178.195 68.358,175.055 68.358,171.185 C68.358,168.705 69.648,166.525 71.588,165.285 C72.678,164.575 73.978,164.165 75.368,164.165 C76.248,164.165 77.098,164.335 77.878,164.635 C80.488,165.635 82.348,168.155 82.378,171.125" fill="#009EE1"/>
    </g>
  </g>
</svg>
